<svg width="128" height="128" viewBox="0 0 128 128" version="1.1" xmlns="http://www.w3.org/2000/svg" xmlns:xlink="http://www.w3.org/1999/xlink" xmlns:figma="http://www.figma.com/figma/ns">
<title>Group</title>
<desc>Created using Figma</desc>
<g id="Canvas" figma:type="canvas">
<g id="Group" style="mix-blend-mode:normal;" figma:type="frame">
<g id="Rectangle" style="mix-blend-mode:normal;" figma:type="rounded-rectangle">
<use xlink:href="#path0_fill" transform="translate(1.77636e-15 0)" fill="#FF5A00" style="mix-blend-mode:normal;"/>
</g>
<g id="EC" style="mix-blend-mode:normal;" figma:type="text">
<use xlink:href="#path1_fill" fill="#FFFFFF" style="mix-blend-mode:normal;"/>
</g>
</g>
</g>
<defs>
<path id="path0_fill" d="M 0 5C 0 2.23858 2.23858 0 5 0L 123 0C 125.761 0 128 2.23858 128 5L 128 123C 128 125.761 125.761 128 123 128L 5 128C 2.23858 128 0 125.761 0 123L 0 5Z"/>
<path id="path1_fill" d="M 52.75 67.2344L 25.75 67.2344L 25.75 85.5156L 57.4375 85.5156L 57.4375 96.8125L 11.6875 96.8125L 11.6875 28.5625L 57.3438 28.5625L 57.3438 39.9531L 25.75 39.9531L 25.75 56.2188L 52.75 56.2188L 52.75 67.2344ZM 119.266 74.0781C 118.734 81.4219 116.016 87.2031 111.109 91.4219C 106.234 95.6406 99.7969 97.75 91.7969 97.75C 83.0469 97.75 76.1563 94.8125 71.125 88.9375C 66.125 83.0312 63.625 74.9375 63.625 64.6562L 63.625 60.4844C 63.625 53.9219 64.7812 48.1406 67.0938 43.1406C 69.4062 38.1406 72.7031 34.3125 76.9844 31.6562C 81.2969 28.9687 86.2969 27.625 91.9844 27.625C 99.8594 27.625 106.203 29.7344 111.016 33.9531C 115.828 38.1719 118.609 44.0938 119.359 51.7188L 105.297 51.7188C 104.953 47.3125 103.719 44.125 101.594 42.1562C 99.5 40.1563 96.2969 39.1562 91.9844 39.1562C 87.2969 39.1562 83.7812 40.8438 81.4375 44.2188C 79.125 47.5625 77.9375 52.7656 77.875 59.8281L 77.875 64.9844C 77.875 72.3594 78.9844 77.75 81.2031 81.1562C 83.4531 84.5625 86.9844 86.2656 91.7969 86.2656C 96.1406 86.2656 99.375 85.2812 101.5 83.3125C 103.656 81.3125 104.891 78.2344 105.203 74.0781L 119.266 74.0781Z"/>
</defs>
</svg>
